#N canvas 746 209 1280 834 12;
#X obj 207 718 dac~;
#X msg 387 -35 \; pd dsp 1;
#X msg 491 -35 \; pd dsp 0;
#X text 402 2 ON;
#X text 511 2 OFF;
#X obj -23 242 osc~;
#X obj 26 123 mtof;
#X msg -9 77 48;
#X msg 70 77 57;
#X obj 185 196 min~;
#X obj 84 335 lop~ 40;
#X obj 185 117 phasor~ 0.3;
#X obj 217 154 cyclone/pink~;
#X obj 2 392 *~;
#X obj 203 657 *~ 0.1;
#X floatatom 269 393 5 0 1 0 - - - 0;
#X obj 434 297 osc~;
#X obj 450 248 mtof;
#X msg 396 187 48;
#X obj 564 284 min~;
#X obj 564 328 lop~ 40;
#X obj 706 213 cyclone/pink~;
#X obj 454 340 *~;
#X obj 328 621 *~ 0.1;
#X obj 564 205 phasor~ 0.2;
#X msg 485 195 56;
#X obj 138 276 min~;
#X obj 236 366 delwrite~ tbt 200;
#X obj 473 395 delread~ tbt 200;
#X msg 440 148 52;
#X obj -172 527 delread~ tbt 120;
#X msg 518 146 62;
#X obj 670 353 lop~ 40;
#X obj 598 485 *~;
#X msg 32 77 69;
#X obj 597 533 *~ 0;
#X obj 594 97 random 80;
#X obj 594 122 / 100;
#X obj 594 72 metro 800;
#X obj 594 43 tgl 19 0 empty empty empty 0 -10 0 12 #fcfcfc #000000 #000000 0 1;
#X obj 703 97 random 80;
#X obj 703 72 metro 800;
#X obj 703 43 tgl 19 0 empty empty empty 0 -10 0 12 #fcfcfc #000000 #000000 0 1;
#X obj 703 122 / 300;
#X obj 536 61 bng 19 250 50 0 empty empty empty 0 -10 0 12 #fcfcfc #000000 #000000;
#X obj 311 302 vline~;
#X obj 312 276 \$1 300;
#X obj 860 312 random 80;
#X obj 860 287 metro 800;
#X obj 860 258 tgl 19 0 empty empty empty 0 -10 0 12 #fcfcfc #000000 #000000 0 1;
#X obj 860 337 * 10;
#X obj 77 178 phasor~;
#X obj 306 196 phasor~;
#X obj 260 230 *~;
#X obj 244 502 delwrite~ ddd 600;
#X obj -73 507 delread~ ddd 600;
#X obj 28 581 *~;
#X obj 297 41 random 4;
#X obj 297 73 select 0 1 2 3;
#X obj 192 -8 metro 3000;
#X obj 270 331 vcf~ 10;
#X obj 184 43 random 6000;
#X obj 0 4 select 0 1 2;
#X msg 110 78 53;
#X obj 15 -32 random 4;
#X obj 128 32 delay;
#X obj 485 593 vd~ ddd;
#X obj 585 613 vline~;
#X obj 751 480 * 20;
#X obj 488 667 *~ 0.8;
#X obj -195 23 mrpeach/unpackOSC;
#X floatatom -193 96 5 0 0 0 - - - 0;
#X obj -195 61 mrpeach/routeOSC /noise;
#X obj -195 -13 mrpeach/udpreceive 6449;
#X obj 397 266 *~;
#X obj 288 -41 tgl 19 0 empty empty empty 0 -10 0 12 #fcfcfc #000000 #000000 0 1;
#X obj -407 58 mrpeach/routeOSC /num;
#X floatatom -407 96 5 0 0 0 - - - 0;
#X floatatom -387 173 5 0 0 0 - - - 0;
#X obj -387 142 mrpeach/routeOSC /size;
#X floatatom -28 179 5 0 0 0 - - - 0;
#X obj -225 256 osc~;
#X obj -53 345 *~;
#X floatatom -161 158 5 0 0 0 - - - 0;
#X obj -212 123 expr ($f1 * 10 / 2 + 0.5) * 1000;
#X obj -225 294 expr~ $v1 / 2 + 0.5;
#X obj -347 208 expr 1 + ( 1 - $f1) * 10;
#X connect 5 0 26 0;
#X connect 5 0 82 1;
#X connect 6 0 80 0;
#X connect 7 0 6 0;
#X connect 8 0 6 0;
#X connect 9 0 10 0;
#X connect 10 0 13 1;
#X connect 11 0 9 0;
#X connect 12 0 9 1;
#X connect 13 0 14 0;
#X connect 14 0 0 0;
#X connect 14 0 0 1;
#X connect 15 0 14 1;
#X connect 16 0 22 0;
#X connect 16 0 26 1;
#X connect 17 0 52 0;
#X connect 17 0 16 0;
#X connect 18 0 17 0;
#X connect 19 0 20 0;
#X connect 20 0 22 1;
#X connect 21 0 19 1;
#X connect 22 0 23 0;
#X connect 24 0 19 0;
#X connect 24 0 26 1;
#X connect 24 0 32 0;
#X connect 25 0 17 0;
#X connect 26 0 27 0;
#X connect 26 0 60 0;
#X connect 28 0 23 0;
#X connect 28 0 33 0;
#X connect 29 0 17 0;
#X connect 30 0 56 0;
#X connect 31 0 17 0;
#X connect 32 0 33 1;
#X connect 33 0 35 0;
#X connect 34 0 6 0;
#X connect 35 0 27 0;
#X connect 36 0 37 0;
#X connect 37 0 24 0;
#X connect 38 0 36 0;
#X connect 39 0 38 0;
#X connect 40 0 43 0;
#X connect 41 0 40 0;
#X connect 42 0 41 0;
#X connect 43 0 11 0;
#X connect 44 0 36 0;
#X connect 45 0 60 1;
#X connect 46 0 45 0;
#X connect 47 0 50 0;
#X connect 47 0 68 0;
#X connect 48 0 47 0;
#X connect 49 0 48 0;
#X connect 50 0 46 0;
#X connect 51 0 53 0;
#X connect 52 0 53 1;
#X connect 53 0 54 0;
#X connect 53 0 60 0;
#X connect 55 0 56 0;
#X connect 56 0 23 0;
#X connect 56 0 14 0;
#X connect 57 0 58 0;
#X connect 58 0 18 0;
#X connect 58 1 29 0;
#X connect 58 2 25 0;
#X connect 58 3 31 0;
#X connect 59 0 57 0;
#X connect 59 0 61 0;
#X connect 59 0 65 0;
#X connect 60 0 27 0;
#X connect 60 0 56 1;
#X connect 61 0 59 1;
#X connect 62 0 7 0;
#X connect 62 1 34 0;
#X connect 62 2 8 0;
#X connect 62 3 63 0;
#X connect 63 0 6 0;
#X connect 64 0 62 0;
#X connect 65 0 64 0;
#X connect 66 0 23 0;
#X connect 66 0 69 0;
#X connect 67 0 66 0;
#X connect 68 0 67 0;
#X connect 69 0 54 0;
#X connect 70 0 72 0;
#X connect 70 0 76 0;
#X connect 70 0 79 0;
#X connect 71 0 84 0;
#X connect 72 0 71 0;
#X connect 73 0 70 0;
#X connect 75 0 59 0;
#X connect 76 0 77 0;
#X connect 78 0 86 0;
#X connect 79 0 78 0;
#X connect 80 0 5 0;
#X connect 81 0 85 0;
#X connect 82 0 13 0;
#X connect 83 0 5 0;
#X connect 84 0 83 0;
#X connect 85 0 82 0;
#X connect 86 0 81 0;
