#N canvas 898 1110 975 559 12;
#X obj 35 143 phasor~ 200;
#X obj 47 595 dac~;
#X obj 36 184 expr~ $v1 * 2 - 1;
#X obj 39 281 vcf~ 1;
#X obj 642 375 sig~;
#X obj 46 556 *~ 0.1;
#X floatatom 137 495 5 0 1 0 Vol - - 0;
#X floatatom 324 36 5 0 0 0 Mod\ freq - - 0;
#X obj 324 65 osc~;
#X obj 324 91 *~;
#X floatatom 393 43 5 0 1 1 Mod\ amount - - 0;
#X obj 324 117 +~ 200;
#X obj 708 295 metro 100;
#X obj 719 356 bng 19 250 50 0 empty empty empty 0 -10 0 12 #fcfcfc #000000 #000000;
#X obj 708 267 tgl 19 0 empty empty empty 0 -10 0 12 #fcfcfc #000000 #000000 0 1;
#X obj 643 410 snapshot~;
#X floatatom 645 443 5 0 0 0 - - - 0;
#X floatatom 648 303 5 0 0 0 - - - 0;
#X obj 658 264 line 0;
#X msg 661 228 0 \, 1000 100 20;
#X obj 423 423 osc~;
#X floatatom 405 393 5 0 0 0 - - - 0;
#X obj 401 489 expr~ $v1 * 1000 + 500;
#X floatatom 257 455 4 0 0 0 - - - 0;
#X obj 240 494 rev1~;
#X floatatom 426 112 5 0 0 1 Carrier\ frequency - - 0;
#X obj 424 162 t b f;
#X obj 417 77 * 200, f 7;
#X obj 48 246 sig~;
#X floatatom 48 222 5 0 0 0 - - - 0;
#X obj 85 358 *~;
#X floatatom 221 228 5 0 0 1 Mod\ Freq - - 0;
#X obj 221 261 osc~;
#X obj 221 288 expr~ ($v1 + 1) / 2;
#X obj 221 320 *~;
#X floatatom 284 320 5 0 1 1 Mod\ amount - - 0;
#X obj 216 360 expr~ 1 - $v1;
#X connect 0 0 2 0;
#X connect 2 0 3 0;
#X connect 3 1 30 0;
#X connect 4 0 15 0;
#X connect 5 0 1 0;
#X connect 5 0 1 1;
#X connect 6 0 5 1;
#X connect 7 0 8 0;
#X connect 8 0 9 0;
#X connect 9 0 11 0;
#X connect 10 0 27 0;
#X connect 11 0 0 0;
#X connect 12 0 13 0;
#X connect 13 0 15 0;
#X connect 14 0 12 0;
#X connect 15 0 16 0;
#X connect 17 0 4 0;
#X connect 18 0 17 0;
#X connect 19 0 18 0;
#X connect 20 0 22 0;
#X connect 21 0 20 0;
#X connect 23 0 24 1;
#X connect 25 0 11 1;
#X connect 25 0 26 0;
#X connect 26 0 10 0;
#X connect 26 1 27 1;
#X connect 27 0 9 1;
#X connect 28 0 3 1;
#X connect 29 0 28 0;
#X connect 30 0 5 0;
#X connect 31 0 32 0;
#X connect 32 0 33 0;
#X connect 33 0 34 0;
#X connect 34 0 36 0;
#X connect 35 0 34 1;
#X connect 36 0 30 1;
