#N canvas 898 1110 975 903 12;
#X obj 188 448 dac~;
#X obj 36 184 expr~ $v1 * 2 - 1;
#X obj 150 234 vcf~ 1;
#X obj 187 409 *~ 0.1;
#X floatatom 278 411 5 0 1 0 Vol - - 0;
#X floatatom 37 7 5 0 0 0 Mod\ freq - - 0;
#X obj 37 36 osc~;
#X obj 37 62 *~;
#X floatatom 118 5 5 0 1 1 Mod\ amount - - 0;
#X obj 37 88 +~ 200;
#X floatatom 119 72 5 0 0 1 Carrier\ frequency - - 0;
#X obj 119 105 t b f;
#X obj 120 37 * 200, f 7;
#X obj 187 358 *~;
#X floatatom 277 233 5 0 0 1 Mod\ Freq - - 0;
#X obj 277 266 osc~;
#X obj 277 293 expr~ ($v1 + 1) / 2;
#X obj 277 325 *~;
#X floatatom 340 325 5 0 1 1 Mod\ amount - - 0;
#X obj 277 361 expr~ 1 - $v1;
#X floatatom 338 3 5 0 0 0 Mod\ freq - - 0;
#X obj 338 32 osc~;
#X obj 338 58 *~;
#X floatatom 412 10 5 0 1 1 Mod\ amount - - 0;
#X obj 337 91 +~ 200;
#X floatatom 411 72 5 0 0 1 Carrier\ frequency - - 0;
#X obj 412 101 t b f;
#X obj 410 40 * 200, f 7;
#X obj 38 156 phasor~ 200;
#X connect 1 0 2 0;
#X connect 2 1 13 0;
#X connect 3 0 0 0;
#X connect 3 0 0 1;
#X connect 4 0 3 1;
#X connect 5 0 6 0;
#X connect 6 0 7 0;
#X connect 7 0 9 0;
#X connect 8 0 12 0;
#X connect 9 0 28 0;
#X connect 10 0 9 1;
#X connect 10 0 11 0;
#X connect 11 0 8 0;
#X connect 11 1 12 1;
#X connect 12 0 7 1;
#X connect 13 0 3 0;
#X connect 14 0 15 0;
#X connect 15 0 16 0;
#X connect 16 0 17 0;
#X connect 17 0 19 0;
#X connect 18 0 17 1;
#X connect 19 0 13 1;
#X connect 20 0 21 0;
#X connect 21 0 22 0;
#X connect 22 0 24 0;
#X connect 23 0 27 0;
#X connect 24 0 2 1;
#X connect 25 0 24 1;
#X connect 25 0 26 0;
#X connect 26 0 23 0;
#X connect 26 1 27 1;
#X connect 27 0 22 1;
#X connect 28 0 1 0;
