#N canvas 1101 306 450 300 12;
#X obj 36 67 mrpeach/unpackOSC;
#X floatatom 36 140 5 0 0 0 - - - 0;
#X obj 36 105 mrpeach/routeOSC /noise;
#X obj 36 31 mrpeach/udpreceive 6449;
#X connect 0 0 2 0;
#X connect 2 0 1 0;
#X connect 3 0 0 0;
